<svg xmlns="http://www.w3.org/2000/svg" data-name="Layer 1" viewBox="0 0 100 125" x="0px" y="0px"><path d="M83.49,45.775a33.769,33.769,0,0,0-32.678-29.53l4.323-4.289a1.875,1.875,0,1,0-2.641-2.662l-7.8,7.742a1.876,1.876,0,0,0-.011,2.652l7.805,7.869a1.875,1.875,0,0,0,2.663-2.641L50.26,19.99A30.02,30.02,0,0,1,77.721,61.5a30.214,30.214,0,0,1-8.972,11.936A1.875,1.875,0,0,0,71.1,76.36,33.737,33.737,0,0,0,83.49,45.775Z"/><path d="M47.517,72.443a1.875,1.875,0,1,0-2.663,2.641L49.74,80.01a30.021,30.021,0,0,1-27.463-41.5,30.212,30.212,0,0,1,8.967-11.934A1.875,1.875,0,0,0,28.9,23.646,33.743,33.743,0,0,0,16.51,54.226,33.77,33.77,0,0,0,49.188,83.755l-4.323,4.289a1.875,1.875,0,1,0,2.641,2.662l7.805-7.742a1.876,1.876,0,0,0,.011-2.652Z"/><path d="M65.14,46.752,44.375,34.764a3.75,3.75,0,0,0-5.625,3.247V61.989a3.741,3.741,0,0,0,5.625,3.247L65.14,53.248a3.751,3.751,0,0,0,0-6.5ZM42.5,61.989V38.011L63.265,50Z"/><text x="0" y="115" fill="#000000" font-size="5px" font-weight="bold" font-family="'Helvetica Neue', Helvetica, Arial-Unicode, Arial, Sans-serif">Created by Hilmy Abiyyu Asad</text><text x="0" y="120" fill="#000000" font-size="5px" font-weight="bold" font-family="'Helvetica Neue', Helvetica, Arial-Unicode, Arial, Sans-serif">from the Noun Project</text></svg>